<mxfile host="app.diagrams.net" agent="Mozilla/5.0 (Windows NT 10.0; Win64; x64; rv:129.0) Gecko/20100101 Firefox/129.0" version="24.7.6">
  <diagram name="Page-1" id="wdsX4F_tK8qgcI49Nfrs">
    <mxGraphModel dx="1434" dy="746" grid="1" gridSize="10" guides="1" tooltips="1" connect="1" arrows="1" fold="1" page="1" pageScale="1" pageWidth="850" pageHeight="1100" math="0" shadow="0">
      <root>
        <mxCell id="0" />
        <mxCell id="1" parent="0" />
        <mxCell id="Z56hDjqOfj25VREnuJWh-1" value="" style="rounded=1;whiteSpace=wrap;html=1;arcSize=3;" vertex="1" parent="1">
          <mxGeometry x="40" y="80" width="780" height="570" as="geometry" />
        </mxCell>
        <mxCell id="Z56hDjqOfj25VREnuJWh-2" value="Alpha" style="text;html=1;align=center;verticalAlign=middle;whiteSpace=wrap;rounded=0;fontStyle=1;fontSize=24;" vertex="1" parent="1">
          <mxGeometry x="62" y="100" width="60" height="30" as="geometry" />
        </mxCell>
        <mxCell id="Z56hDjqOfj25VREnuJWh-13" value="" style="endArrow=classic;html=1;rounded=0;exitX=0.625;exitY=1.03;exitDx=0;exitDy=0;exitPerimeter=0;entryX=0.5;entryY=0;entryDx=0;entryDy=0;" edge="1" parent="1" source="Z56hDjqOfj25VREnuJWh-6" target="Z56hDjqOfj25VREnuJWh-11">
          <mxGeometry width="50" height="50" relative="1" as="geometry">
            <mxPoint x="400" y="330" as="sourcePoint" />
            <mxPoint x="450" y="280" as="targetPoint" />
          </mxGeometry>
        </mxCell>
        <mxCell id="Z56hDjqOfj25VREnuJWh-23" value="" style="endArrow=classic;html=1;rounded=0;entryX=0.5;entryY=0;entryDx=0;entryDy=0;exitX=0.5;exitY=1;exitDx=0;exitDy=0;" edge="1" parent="1" source="Z56hDjqOfj25VREnuJWh-11" target="Z56hDjqOfj25VREnuJWh-15">
          <mxGeometry width="50" height="50" relative="1" as="geometry">
            <mxPoint x="370" y="230" as="sourcePoint" />
            <mxPoint x="420" y="180" as="targetPoint" />
          </mxGeometry>
        </mxCell>
        <mxCell id="Z56hDjqOfj25VREnuJWh-24" value="" style="group" vertex="1" connectable="0" parent="1">
          <mxGeometry x="70" y="269" width="322.5" height="350" as="geometry" />
        </mxCell>
        <mxCell id="Z56hDjqOfj25VREnuJWh-15" value="" style="rounded=1;whiteSpace=wrap;html=1;arcSize=4;fontSize=18;" vertex="1" parent="Z56hDjqOfj25VREnuJWh-24">
          <mxGeometry width="322.5" height="350" as="geometry" />
        </mxCell>
        <mxCell id="Z56hDjqOfj25VREnuJWh-16" value="Program Normalizer " style="text;html=1;align=center;verticalAlign=middle;whiteSpace=wrap;rounded=0;fontSize=18;" vertex="1" parent="Z56hDjqOfj25VREnuJWh-24">
          <mxGeometry x="1" y="4" width="182.5" height="30" as="geometry" />
        </mxCell>
        <mxCell id="Z56hDjqOfj25VREnuJWh-17" value="Equality Literal Rewriting" style="rounded=1;whiteSpace=wrap;html=1;" vertex="1" parent="Z56hDjqOfj25VREnuJWh-24">
          <mxGeometry x="12.5" y="45" width="300" height="40" as="geometry" />
        </mxCell>
        <mxCell id="Z56hDjqOfj25VREnuJWh-18" value="Choice Head Rewriting" style="rounded=1;whiteSpace=wrap;html=1;" vertex="1" parent="Z56hDjqOfj25VREnuJWh-24">
          <mxGeometry x="12.5" y="95" width="300" height="40" as="geometry" />
        </mxCell>
        <mxCell id="Z56hDjqOfj25VREnuJWh-19" value="Aggregate Literal Rewriting" style="rounded=1;whiteSpace=wrap;html=1;" vertex="1" parent="Z56hDjqOfj25VREnuJWh-24">
          <mxGeometry x="12.5" y="145" width="300" height="40" as="geometry" />
        </mxCell>
        <mxCell id="Z56hDjqOfj25VREnuJWh-20" value="Enumeration Atom Resolution" style="rounded=1;whiteSpace=wrap;html=1;" vertex="1" parent="Z56hDjqOfj25VREnuJWh-24">
          <mxGeometry x="12.5" y="195" width="300" height="40" as="geometry" />
        </mxCell>
        <mxCell id="Z56hDjqOfj25VREnuJWh-21" value="Interval Term Rewriting" style="rounded=1;whiteSpace=wrap;html=1;" vertex="1" parent="Z56hDjqOfj25VREnuJWh-24">
          <mxGeometry x="12.5" y="245" width="300" height="40" as="geometry" />
        </mxCell>
        <mxCell id="Z56hDjqOfj25VREnuJWh-22" value="Arithmetic Term Rewriting" style="rounded=1;whiteSpace=wrap;html=1;" vertex="1" parent="Z56hDjqOfj25VREnuJWh-24">
          <mxGeometry x="12.5" y="295" width="300" height="40" as="geometry" />
        </mxCell>
        <mxCell id="Z56hDjqOfj25VREnuJWh-25" value="" style="group" vertex="1" connectable="0" parent="1">
          <mxGeometry x="70" y="160" width="322.5" height="70" as="geometry" />
        </mxCell>
        <mxCell id="Z56hDjqOfj25VREnuJWh-11" value="Parser" style="rounded=1;whiteSpace=wrap;html=1;arcSize=18;fontSize=18;" vertex="1" parent="Z56hDjqOfj25VREnuJWh-25">
          <mxGeometry width="322.5" height="70" as="geometry" />
        </mxCell>
        <mxCell id="Z56hDjqOfj25VREnuJWh-12" value="External Atom Linker" style="rounded=1;whiteSpace=wrap;html=1;" vertex="1" parent="Z56hDjqOfj25VREnuJWh-25">
          <mxGeometry x="212.5" y="12.5" width="100" height="45" as="geometry" />
        </mxCell>
        <mxCell id="Z56hDjqOfj25VREnuJWh-26" value="" style="group" vertex="1" connectable="0" parent="1">
          <mxGeometry x="171" width="120" height="130" as="geometry" />
        </mxCell>
        <mxCell id="Z56hDjqOfj25VREnuJWh-6" value="" style="shape=note;whiteSpace=wrap;html=1;backgroundOutline=1;darkOpacity=0.05;" vertex="1" parent="Z56hDjqOfj25VREnuJWh-26">
          <mxGeometry x="10" y="30" width="80" height="100" as="geometry" />
        </mxCell>
        <mxCell id="Z56hDjqOfj25VREnuJWh-7" value="" style="shape=note;whiteSpace=wrap;html=1;backgroundOutline=1;darkOpacity=0.05;" vertex="1" parent="Z56hDjqOfj25VREnuJWh-26">
          <mxGeometry x="20" y="20" width="80" height="100" as="geometry" />
        </mxCell>
        <mxCell id="Z56hDjqOfj25VREnuJWh-8" value="" style="shape=note;whiteSpace=wrap;html=1;backgroundOutline=1;darkOpacity=0.05;" vertex="1" parent="Z56hDjqOfj25VREnuJWh-26">
          <mxGeometry x="30" y="10" width="80" height="100" as="geometry" />
        </mxCell>
        <mxCell id="Z56hDjqOfj25VREnuJWh-9" value="" style="shape=note;whiteSpace=wrap;html=1;backgroundOutline=1;darkOpacity=0.05;" vertex="1" parent="Z56hDjqOfj25VREnuJWh-26">
          <mxGeometry x="40" width="80" height="100" as="geometry" />
        </mxCell>
        <mxCell id="Z56hDjqOfj25VREnuJWh-10" value="Input Program" style="text;html=1;align=center;verticalAlign=middle;whiteSpace=wrap;rounded=0;fontSize=18;" vertex="1" parent="Z56hDjqOfj25VREnuJWh-26">
          <mxGeometry y="45" width="120" height="30" as="geometry" />
        </mxCell>
        <mxCell id="Z56hDjqOfj25VREnuJWh-37" value="" style="rounded=1;whiteSpace=wrap;html=1;arcSize=4;" vertex="1" parent="1">
          <mxGeometry x="410" y="160" width="380" height="460" as="geometry" />
        </mxCell>
        <mxCell id="Z56hDjqOfj25VREnuJWh-38" value="Solver" style="text;html=1;align=center;verticalAlign=middle;whiteSpace=wrap;rounded=0;fontSize=18;" vertex="1" parent="1">
          <mxGeometry x="418" y="165" width="60" height="30" as="geometry" />
        </mxCell>
        <mxCell id="Z56hDjqOfj25VREnuJWh-39" value="Stratified Evaluation" style="rounded=1;whiteSpace=wrap;html=1;fontSize=18;" vertex="1" parent="1">
          <mxGeometry x="420" y="520" width="360" height="84" as="geometry" />
        </mxCell>
        <mxCell id="Z56hDjqOfj25VREnuJWh-42" value="" style="endArrow=classic;html=1;rounded=0;entryX=0;entryY=0.5;entryDx=0;entryDy=0;exitX=1.002;exitY=0.837;exitDx=0;exitDy=0;exitPerimeter=0;" edge="1" parent="1" source="Z56hDjqOfj25VREnuJWh-15" target="Z56hDjqOfj25VREnuJWh-39">
          <mxGeometry width="50" height="50" relative="1" as="geometry">
            <mxPoint x="400" y="570" as="sourcePoint" />
            <mxPoint x="450" y="520" as="targetPoint" />
          </mxGeometry>
        </mxCell>
        <mxCell id="Z56hDjqOfj25VREnuJWh-43" value="Grounder" style="rounded=1;whiteSpace=wrap;html=1;fontSize=18;" vertex="1" parent="1">
          <mxGeometry x="425" y="360" width="355" height="110" as="geometry" />
        </mxCell>
        <mxCell id="Z56hDjqOfj25VREnuJWh-44" value="Solver" style="rounded=1;whiteSpace=wrap;html=1;fontSize=18;" vertex="1" parent="1">
          <mxGeometry x="425" y="210" width="355" height="110" as="geometry" />
        </mxCell>
        <mxCell id="Z56hDjqOfj25VREnuJWh-48" value="" style="shape=flexArrow;endArrow=classic;html=1;rounded=0;" edge="1" parent="1">
          <mxGeometry width="50" height="50" relative="1" as="geometry">
            <mxPoint x="560.5" y="360" as="sourcePoint" />
            <mxPoint x="560.5" y="320" as="targetPoint" />
          </mxGeometry>
        </mxCell>
        <mxCell id="Z56hDjqOfj25VREnuJWh-51" value="" style="shape=flexArrow;endArrow=classic;html=1;rounded=0;exitX=0.5;exitY=1;exitDx=0;exitDy=0;entryX=0.5;entryY=0;entryDx=0;entryDy=0;" edge="1" parent="1">
          <mxGeometry width="50" height="50" relative="1" as="geometry">
            <mxPoint x="641.5" y="320" as="sourcePoint" />
            <mxPoint x="641.5" y="360" as="targetPoint" />
          </mxGeometry>
        </mxCell>
        <mxCell id="Z56hDjqOfj25VREnuJWh-52" value="" style="endArrow=classic;html=1;rounded=0;entryX=0.517;entryY=0.888;entryDx=0;entryDy=0;entryPerimeter=0;" edge="1" parent="1" target="Z56hDjqOfj25VREnuJWh-53">
          <mxGeometry width="50" height="50" relative="1" as="geometry">
            <mxPoint x="600" y="210" as="sourcePoint" />
            <mxPoint x="600" y="60" as="targetPoint" />
          </mxGeometry>
        </mxCell>
        <mxCell id="Z56hDjqOfj25VREnuJWh-53" value="" style="shape=document;whiteSpace=wrap;html=1;boundedLbl=1;" vertex="1" parent="1">
          <mxGeometry x="540" y="30" width="120" height="80" as="geometry" />
        </mxCell>
        <mxCell id="Z56hDjqOfj25VREnuJWh-54" value="" style="shape=document;whiteSpace=wrap;html=1;boundedLbl=1;" vertex="1" parent="1">
          <mxGeometry x="550" y="10" width="120" height="80" as="geometry" />
        </mxCell>
        <mxCell id="Z56hDjqOfj25VREnuJWh-55" value="Answer Set(s)" style="text;html=1;align=center;verticalAlign=middle;whiteSpace=wrap;rounded=0;fontSize=18;" vertex="1" parent="1">
          <mxGeometry x="545" y="35" width="130" height="30" as="geometry" />
        </mxCell>
        <mxCell id="Z56hDjqOfj25VREnuJWh-56" value="" style="endArrow=classic;html=1;rounded=0;exitX=0.5;exitY=0;exitDx=0;exitDy=0;" edge="1" parent="1">
          <mxGeometry width="50" height="50" relative="1" as="geometry">
            <mxPoint x="599" y="520" as="sourcePoint" />
            <mxPoint x="599" y="472" as="targetPoint" />
          </mxGeometry>
        </mxCell>
      </root>
    </mxGraphModel>
  </diagram>
</mxfile>
